# xmcd CD database file
#
# Track frame offsets:
#	150
#	25169
#	52541
#	70078
#	96214
#	106994
#	126178
#	149269
#	169220
#	193773
#	213797
#
# Disc length: 3132 seconds
#
# Revision: 0
# Processed by: cddbd v1.5.2PL0 Copyright (c) Steve Scherf et al.
# Submitted via: CDex 1.51
#
DISCID=920c3a0b
DTITLE=pierini - fronteiras
DYEAR=1999
DGENRE=New Age
TTITLE0=delphos
TTITLE1=em cada despedida
TTITLE2=nascente
TTITLE3=jardins
TTITLE4=fronteiras
TTITLE5=fantasias 
TTITLE6=olhar inocente
TTITLE7=do alto das grutas
TTITLE8=memórias
TTITLE9=a era dos deuses
TTITLE10=nossas faces
EXTD=YEAR: 1999
EXTT0=
EXTT1=
EXTT2=
EXTT3=
EXTT4=
EXTT5=
EXTT6=
EXTT7=
EXTT8=
EXTT9=
EXTT10=
PLAYORDER=
